<svg xmlns="http://www.w3.org/2000/svg" viewBox="0 0 24 24" fill="none">
  <!-- Flask body -->
  <path d="M9 3 L15 3 L15 9 L19 17 Q20 21 17 22 L7 22 Q4 21 5 17 L9 9 Z" fill="#0d2016" stroke="#00cc66" stroke-width="0.5"/>
  <!-- Glowing serum -->
  <path d="M9.5 11 L7 17 Q6.5 21 9 21.5 L15 21.5 Q17.5 21 17 17 L14.5 11 Z" fill="#00cc66" opacity="0.6"/>
  <!-- Serum shine -->
  <line x1="10" y1="13" x2="9" y2="20" stroke="#66ffaa" stroke-width="0.8" opacity="0.4" stroke-linecap="round"/>
  <!-- Flask neck -->
  <rect x="9" y="3" width="6" height="7" rx="0.5" fill="#1a3a25"/>
  <!-- Gold stopper -->
  <rect x="8.5" y="1.5" width="7" height="2.5" rx="1" fill="#C8A800"/>
  <!-- Medical cross -->
  <rect x="11" y="14" width="2" height="5" rx="0.3" fill="white" opacity="0.85"/>
  <rect x="9.5" y="15.5" width="5" height="2" rx="0.3" fill="white" opacity="0.85"/>
</svg>
